<?xml version="1.0" standalone="no"?>
<!DOCTYPE svg PUBLIC "-//W3C//DTD SVG 20010904//EN"
 "http://www.w3.org/TR/2001/REC-SVG-20010904/DTD/svg10.dtd">
<svg version="1.0" xmlns="http://www.w3.org/2000/svg"
 width="128.000000pt" height="128.000000pt" viewBox="0 0 128.000000 128.000000"
 preserveAspectRatio="xMidYMid meet">

<g transform="translate(0.000000,128.000000) scale(0.100000,-0.100000)"
fill="#9ca3af" stroke="none">
<path d="M502 1084 c-74 -42 -130 -80 -125 -84 4 -4 27 -17 50 -30 l42 -23 82
47 c45 25 86 46 91 46 4 0 45 -21 89 -47 l81 -47 45 25 c24 13 47 27 49 30 4
7 -250 159 -264 159 -4 0 -67 -34 -140 -76z"/>
<path d="M237 932 l-48 -27 3 -60 c3 -58 4 -60 43 -82 22 -12 43 -23 48 -23 4
0 7 24 7 54 0 49 2 55 28 65 15 6 38 20 51 30 l23 18 -47 26 c-26 15 -50 27
-54 27 -3 0 -28 -13 -54 -28z"/>
<path d="M592 933 c-48 -29 -46 -39 17 -67 38 -18 39 -18 80 8 22 15 41 28 41
31 0 4 -84 55 -91 55 -2 -1 -23 -12 -47 -27z"/>
<path d="M931 931 l-43 -28 51 -29 51 -29 0 -52 c0 -29 3 -53 8 -53 4 0 25 11
47 23 39 22 40 24 43 82 l3 60 -50 28 c-27 15 -53 27 -57 26 -5 0 -29 -13 -53
-28z"/>
<path d="M413 829 l-53 -31 0 -53 0 -54 90 -52 90 -51 0 -107 0 -106 51 -28
50 -28 50 28 49 28 0 106 0 107 88 49 87 50 0 58 0 58 -52 29 -52 29 -85 -50
-85 -50 -85 49 c-46 28 -86 50 -88 50 -1 0 -27 -14 -55 -31z"/>
<path d="M190 538 l0 -163 93 -52 c50 -29 111 -64 135 -79 l43 -26 -3 63 -3
62 -82 46 -83 46 0 107 0 106 -46 26 c-26 14 -48 26 -50 26 -2 0 -4 -73 -4
-162z"/>
<path d="M1033 673 l-43 -24 0 -107 0 -107 -85 -48 -85 -48 0 -60 0 -59 48 27
c26 16 87 51 135 78 l87 50 0 163 c0 89 -3 162 -7 161 -5 -1 -27 -12 -50 -26z"/>
<path d="M360 541 l0 -59 44 -26 c25 -14 47 -26 50 -26 3 0 6 27 6 59 l0 59
-44 26 c-25 14 -47 26 -50 26 -3 0 -6 -27 -6 -59z"/>
<path d="M863 574 c-43 -26 -43 -26 -43 -85 0 -32 3 -59 7 -59 3 0 26 11 50
25 l43 26 0 59 c0 33 -3 60 -7 60 -5 -1 -27 -12 -50 -26z"/>
<path d="M540 232 l0 -60 53 -27 52 -27 48 27 47 27 0 59 0 60 -49 -27 -49
-28 -51 28 -51 27 0 -59z"/>
</g>
</svg>
