<?xml version="1.0" standalone="no"?>
<!DOCTYPE svg PUBLIC "-//W3C//DTD SVG 20010904//EN"
 "http://www.w3.org/TR/2001/REC-SVG-20010904/DTD/svg10.dtd">
<svg version="1.0" xmlns="http://www.w3.org/2000/svg"
 width="128.000000pt" height="128.000000pt" viewBox="0 0 128.000000 128.000000"
 preserveAspectRatio="xMidYMid meet">

<g transform="translate(0.000000,128.000000) scale(0.100000,-0.100000)"
fill="#9ca3af" stroke="none">
<path d="M460 1035 l-175 -175 73 -72 72 -73 177 177 178 178 -70 70 c-38 38
-72 70 -75 70 -3 0 -84 -79 -180 -175z"/>
<path d="M567 712 l-287 -287 73 -73 72 -72 288 288 287 287 -73 73 -72 72
-288 -288z"/>
<path d="M135 710 l-70 -70 73 -73 72 -72 72 72 73 73 -70 70 c-38 38 -72 70
-75 70 -3 0 -37 -32 -75 -70z"/>
<path d="M780 495 l-285 -285 73 -72 72 -73 287 287 288 288 -70 70 c-38 38
-72 70 -75 70 -3 0 -133 -128 -290 -285z"/>
</g>
</svg>
